<svg width="26" height="26" viewBox="0 0 26 26" fill="none" xmlns="http://www.w3.org/2000/svg">
<path d="M13 10.7656L13.0001 22.8313" stroke="#00B7FF" stroke-width="2" stroke-linecap="round" stroke-linejoin="round"/>
<path d="M13.0001 3.1687L13 6.29683" stroke="#00B7FF" stroke-width="2" stroke-linecap="round" stroke-linejoin="round"/>
<path d="M13 10.7656C14.234 10.7656 15.2344 9.76526 15.2344 8.53125C15.2344 7.29724 14.234 6.29688 13 6.29688C11.766 6.29688 10.7656 7.29724 10.7656 8.53125C10.7656 9.76526 11.766 10.7656 13 10.7656Z" stroke="#00B7FF" stroke-width="2" stroke-linecap="round" stroke-linejoin="round"/>
<path d="M21.0439 19.7031L21.044 22.8313" stroke="#00B7FF" stroke-width="2" stroke-linecap="round" stroke-linejoin="round"/>
<path d="M21.044 3.1687L21.0439 15.2343" stroke="#00B7FF" stroke-width="2" stroke-linecap="round" stroke-linejoin="round"/>
<path d="M21.0439 19.7031C22.278 19.7031 23.2783 18.7028 23.2783 17.4688C23.2783 16.2347 22.278 15.2344 21.0439 15.2344C19.8099 15.2344 18.8096 16.2347 18.8096 17.4688C18.8096 18.7028 19.8099 19.7031 21.0439 19.7031Z" stroke="#00B7FF" stroke-width="2" stroke-linecap="round" stroke-linejoin="round"/>
<path d="M4.95612 16.1282L4.95605 22.8313" stroke="#00B7FF" stroke-width="2" stroke-linecap="round" stroke-linejoin="round"/>
<path d="M4.95605 3.1687L4.95612 11.6593" stroke="#00B7FF" stroke-width="2" stroke-linecap="round" stroke-linejoin="round"/>
<path d="M4.95605 16.1282C6.19007 16.1282 7.19043 15.1278 7.19043 13.8938C7.19043 12.6598 6.19007 11.6594 4.95605 11.6594C3.72204 11.6594 2.72168 12.6598 2.72168 13.8938C2.72168 15.1278 3.72204 16.1282 4.95605 16.1282Z" stroke="#00B7FF" stroke-width="2" stroke-linecap="round" stroke-linejoin="round"/>
</svg>
