<svg width="26" height="26" viewBox="0 0 26 26" fill="none" xmlns="http://www.w3.org/2000/svg">
<path d="M13 7.63745V13" stroke="#00B7FF" stroke-width="2" stroke-linecap="round" stroke-linejoin="round"/>
<path d="M17.6441 15.6812L13 13" stroke="#00B7FF" stroke-width="2" stroke-linecap="round" stroke-linejoin="round"/>
<path d="M6.72461 9.84009H2.25586V5.37134" stroke="#00B7FF" stroke-width="2" stroke-linecap="round" stroke-linejoin="round"/>
<path d="M6.04772 19.9517C7.42264 21.3266 9.1744 22.263 11.0815 22.6423C12.9886 23.0216 14.9653 22.8269 16.7617 22.0828C18.5581 21.3387 20.0936 20.0786 21.1738 18.4619C22.2541 16.8452 22.8307 14.9444 22.8307 13C22.8307 11.0555 22.2541 9.15475 21.1738 7.538C20.0936 5.92126 18.5581 4.66117 16.7617 3.91706C14.9653 3.17296 12.9886 2.97827 11.0815 3.35761C9.1744 3.73695 7.42264 4.67329 6.04772 6.04821L2.25586 9.84007" stroke="#00B7FF" stroke-width="2" stroke-linecap="round" stroke-linejoin="round"/>
</svg>
