<svg width="137" height="58" viewBox="0 0 137 58" fill="none" xmlns="http://www.w3.org/2000/svg">
<path d="M57.2132 28.7792C57.2132 44.5064 44.5019 57.2188 28.776 57.2188C13.0502 57.2188 0.338867 44.5064 0.338867 28.7792C0.338867 13.052 13.0502 0.3396 28.776 0.3396C44.5019 0.3396 57.2132 13.0967 57.2132 28.7792ZM28.776 5.34046C15.8501 5.34046 5.3393 15.8521 5.3393 28.7792C5.3393 41.7063 15.8501 52.2179 28.776 52.2179C41.702 52.2179 52.2128 41.7063 52.2128 28.7792C52.2128 15.8521 41.702 5.34046 28.776 5.34046Z" fill="#00B7FF"/>
<path d="M28.822 36.3478C33.0114 36.3478 36.4076 32.9513 36.4076 28.7616C36.4076 24.5718 33.0114 21.1753 28.822 21.1753C24.6325 21.1753 21.2363 24.5718 21.2363 28.7616C21.2363 32.9513 24.6325 36.3478 28.822 36.3478Z" fill="#FF608D"/>
<path d="M28.7764 5.12646C15.7342 5.12646 5.125 15.7365 5.125 28.7799C5.125 41.8233 15.7342 52.4333 28.7764 52.4333C41.8187 52.4333 52.4278 41.8233 52.4278 28.7799C52.4278 15.7365 41.8187 5.12646 28.7764 5.12646ZM28.7764 52.0039C15.9667 52.0039 5.55438 41.5817 5.55438 28.7799C5.55438 15.9781 15.9667 5.55588 28.7764 5.55588C41.5861 5.55588 51.9985 15.9781 51.9985 28.7799C51.9985 41.5817 41.5772 52.0039 28.7764 52.0039Z" fill="#231F20"/>
<path d="M28.7771 0C12.9081 0 0 12.9092 0 28.7795C0 44.6499 12.9081 57.5591 28.7771 57.5591C44.6461 57.5591 57.5542 44.6499 57.5542 28.7795C57.5542 12.9092 44.6461 0 28.7771 0ZM28.7771 57.1297C13.1407 57.1297 0.42043 44.4083 0.42043 28.7706C0.42043 13.1328 13.1407 0.41152 28.7771 0.41152C44.4135 0.41152 57.1338 13.1328 57.1338 28.7706C57.1248 44.4173 44.4135 57.1297 28.7771 57.1297Z" fill="#231F20"/>
<path d="M21.2354 28.7619C21.2354 28.5024 21.2444 28.243 21.2712 27.9924C21.2712 28.0282 21.2622 28.0551 21.2622 28.0909C21.2533 28.1535 21.2533 28.2161 21.2444 28.2698C21.2444 28.2877 21.2444 28.2966 21.2444 28.3056C21.2444 28.3324 21.2354 28.3593 21.2354 28.3772C21.2354 28.5024 21.2354 28.6277 21.2354 28.7619C21.2265 28.8872 21.2354 29.0125 21.2354 29.1377V29.1467C21.2444 29.2809 21.2533 29.4151 21.2712 29.5493V29.5583C21.2801 29.6567 21.2891 29.7462 21.3069 29.8356C21.3159 29.9162 21.3338 29.9967 21.3427 30.0772C21.3874 30.3188 21.4411 30.5514 21.5037 30.7841C21.5126 30.8109 21.5215 30.8378 21.5305 30.8646C21.5394 30.9004 21.5573 30.9362 21.5662 30.972C21.3517 30.2651 21.2354 29.5314 21.2354 28.7619Z" fill="#000E4F"/>
<path d="M21.9251 31.9099C21.9251 31.9188 21.9339 31.9188 21.9339 31.9276C21.9162 31.8922 21.8985 31.8568 21.8809 31.8125C21.8985 31.8479 21.9162 31.8834 21.9251 31.9099Z" fill="#000E4F"/>
<path d="M21.585 31.0339C21.5939 31.0607 21.6028 31.0874 21.6117 31.1142C21.6295 31.1676 21.6473 31.2122 21.6651 31.2568C21.6651 31.2657 21.674 31.2746 21.674 31.2835C21.6473 31.2122 21.6117 31.1231 21.585 31.0339Z" fill="#000E4F"/>
<path d="M21.2803 27.956C21.2803 27.9649 21.2803 27.9738 21.2803 27.9827C21.2892 27.9114 21.2981 27.8401 21.307 27.7688C21.2981 27.8312 21.2892 27.8847 21.2803 27.956Z" fill="#000E4F"/>
<path d="M25.7083 35.6324C25.744 35.6502 25.7797 35.6592 25.8155 35.677C25.7351 35.6413 25.6546 35.6056 25.5742 35.5698C25.6189 35.5877 25.6636 35.6145 25.7083 35.6324Z" fill="#000E4F"/>
<path d="M25.3242 35.4534C25.3598 35.4712 25.4042 35.489 25.4487 35.5157C25.4042 35.489 25.3687 35.4712 25.3242 35.4534Z" fill="#000E4F"/>
<path d="M21.7285 31.4368C21.7285 31.4457 21.7374 31.4546 21.7374 31.4635C21.7552 31.517 21.773 31.5616 21.7997 31.615C21.7997 31.6239 21.8086 31.6329 21.8086 31.6418C21.7819 31.5705 21.7552 31.5081 21.7285 31.4368Z" fill="#000E4F"/>
<path d="M25.9673 35.7396C26.012 35.7575 26.0566 35.7753 26.1103 35.7932C26.0298 35.7664 25.9494 35.7307 25.8779 35.7039C25.8958 35.7128 25.9315 35.7307 25.9673 35.7396Z" fill="#000E4F"/>
<path d="M23.6504 34.2808C23.6416 34.272 23.624 34.2544 23.6152 34.2456C23.624 34.2544 23.6416 34.2632 23.6504 34.2808Z" fill="#000E4F"/>
<path d="M23.3833 34.014C23.3833 34.014 23.374 34.0047 23.374 33.9954C23.374 34.0047 23.374 34.014 23.3833 34.014Z" fill="#000E4F"/>
<path d="M23.9105 34.5138C23.9194 34.5226 23.9282 34.5315 23.9371 34.5403C23.9105 34.5138 23.884 34.4872 23.8486 34.4695C23.8752 34.4783 23.8928 34.4961 23.9105 34.5138Z" fill="#000E4F"/>
<path d="M24.0186 34.5945C24.0451 34.6122 24.0716 34.6388 24.0981 34.6565C24.0716 34.6388 24.0451 34.6122 24.0186 34.5945Z" fill="#000E4F"/>
<path d="M44.4129 24.0829C43.894 23.2509 43.2321 22.5084 42.4717 21.8911C42.4628 22.4279 42.4091 22.9557 42.3018 23.4925C42.8474 24.0471 43.3036 24.6823 43.6525 25.389C44.1624 26.3999 44.4486 27.545 44.4486 28.7528C44.4486 29.9605 44.1624 31.1056 43.6525 32.1165C43.3036 32.8143 42.8385 33.4584 42.3018 34.013C42.4002 34.5409 42.4628 35.0776 42.4717 35.6144C43.2321 34.9971 43.8851 34.2546 44.4129 33.4226C45.2627 32.0628 45.7547 30.4704 45.7547 28.7528C45.7457 27.0441 45.2627 25.4427 44.4129 24.0829Z" fill="#000E4F"/>
<path d="M36.9264 36.2855C36.837 36.2855 36.7386 36.2855 36.6491 36.2765C36.2287 36.2586 35.8261 36.2139 35.4236 36.1334C35.0389 36.0528 34.6632 35.9455 34.2965 35.8113C34.2965 36.2586 34.2696 36.706 34.207 37.1533C34.9674 37.4038 35.7814 37.547 36.6133 37.5738C36.7117 37.5738 36.8191 37.5827 36.9175 37.5827C37.7762 37.5827 38.6081 37.4575 39.3953 37.2249C39.4937 36.7596 39.5474 36.2855 39.5384 35.8113C38.8586 36.0707 38.1251 36.2228 37.3647 36.2676C37.2306 36.2765 37.0785 36.2855 36.9264 36.2855Z" fill="#000E4F"/>
<path d="M35.4325 21.3818C35.8261 21.3013 36.2376 21.2476 36.658 21.2387C36.6938 21.2387 36.7207 21.2387 36.7564 21.2387C36.8101 21.2387 36.8727 21.2387 36.9354 21.2387C37.0874 21.2387 37.2395 21.2476 37.3826 21.2566C38.143 21.3013 38.8765 21.4624 39.5563 21.7129C39.5563 21.2387 39.5116 20.7645 39.4132 20.2993C38.626 20.0667 37.7941 19.9414 36.9354 19.9414C35.8172 19.9414 34.7438 20.1472 33.7598 20.5319C34.216 20.8092 34.6543 21.1313 35.0568 21.4803C35.1731 21.4355 35.2984 21.4087 35.4325 21.3818Z" fill="#000E4F"/>
<path d="M25.1986 17.2664C25.1449 17.3559 25.1002 17.4453 25.0465 17.5348C24.5814 18.4116 24.2683 19.351 24.1162 20.3173C24.5814 20.0578 25.0734 19.8431 25.5832 19.6641C25.619 19.5389 25.6548 19.4136 25.6995 19.2884C25.8337 18.9037 25.9947 18.5279 26.1826 18.1611C26.2005 18.1342 26.2094 18.0984 26.2273 18.0716C26.2541 18.0179 26.281 17.9732 26.3168 17.9195C26.3883 17.7853 26.4688 17.6601 26.5493 17.5348C26.9698 16.8996 27.4707 16.3449 28.0343 15.8796C27.6228 15.6381 27.1845 15.4412 26.7282 15.2981C26.1468 15.8707 25.628 16.5328 25.1986 17.2664Z" fill="#000E4F"/>
<path d="M24.3306 34.8359C24.3573 34.8537 24.3839 34.8715 24.4106 34.8894C24.3662 34.8626 24.3306 34.827 24.2861 34.8003C24.295 34.8092 24.3128 34.827 24.3306 34.8359Z" fill="#000E4F"/>
<path d="M24.0986 34.6572C24.134 34.6838 24.1694 34.7104 24.2136 34.7458C24.1694 34.7192 24.134 34.6838 24.0986 34.6572Z" fill="#000E4F"/>
<path d="M25.2168 35.3909C25.2522 35.4086 25.2875 35.4352 25.3229 35.4529C25.2875 35.4263 25.2522 35.4086 25.2168 35.3909Z" fill="#000E4F"/>
<path d="M24.6701 35.0686C24.6967 35.0863 24.7232 35.0951 24.7497 35.1129C24.7144 35.0863 24.679 35.0686 24.6348 35.042C24.6436 35.0509 24.6613 35.0597 24.6701 35.0686Z" fill="#000E4F"/>
<path d="M24.0273 36.196C24.0363 36.4197 24.0542 36.6344 24.081 36.8581C24.1347 37.3323 24.2331 37.8065 24.3583 38.2628C24.5551 38.9517 24.8414 39.6137 25.1992 40.249C25.6286 40.9826 26.1474 41.6447 26.7378 42.2172C27.194 42.0741 27.6234 41.8773 28.0438 41.6357C27.4802 41.1705 26.9793 40.6158 26.5589 39.9805C26.4784 39.8553 26.3979 39.73 26.3263 39.5958C26.2995 39.5422 26.2726 39.4974 26.2368 39.4437C26.2189 39.4169 26.2011 39.3811 26.1921 39.3543C25.9953 38.9874 25.8343 38.6117 25.7091 38.227C25.6733 38.1196 25.6375 38.0122 25.6107 37.9049C25.5123 37.5739 25.4496 37.2428 25.396 36.9118C25.1455 36.8134 24.9129 36.6971 24.6714 36.5718C24.4478 36.4555 24.2331 36.3302 24.0273 36.196Z" fill="#000E4F"/>
<path d="M25.1176 35.3366C25.0553 35.3009 24.9842 35.2653 24.9219 35.2207C24.9842 35.2653 25.0553 35.3009 25.1176 35.3366Z" fill="#000E4F"/>
<path d="M41.5513 20.3078C41.3992 19.3416 41.0861 18.4023 40.6299 17.5345C39.8785 16.121 38.7424 14.8954 37.2575 14.0366C35.7994 13.1956 34.1803 12.7931 32.5433 12.8557C31.8814 12.8825 31.2194 12.9809 30.5664 13.1509C30.2623 13.2314 29.9671 13.3298 29.6719 13.4372C30.1281 13.7145 30.5664 14.0276 30.9779 14.3855C31.5951 14.2244 32.2213 14.1439 32.8564 14.1439C32.9995 14.1439 33.1516 14.1529 33.2947 14.1529C34.4308 14.2155 35.5579 14.5376 36.6045 15.1459C37.6511 15.7542 38.5009 16.5683 39.1181 17.5166C39.4849 18.0713 39.7711 18.6617 39.9769 19.2879C40.0127 19.4042 40.0484 19.5205 40.0842 19.6368C40.1737 19.9499 40.2363 20.263 40.281 20.5762C40.3526 21.0592 40.3794 21.5423 40.3526 22.0344C40.3347 22.3296 40.3079 22.6159 40.2631 22.9021C40.2005 23.2868 40.1021 23.6626 39.9769 24.0383C39.8695 24.3693 39.7264 24.6914 39.5743 25.0134C39.5117 25.1476 39.4402 25.2818 39.3597 25.407C39.3149 25.4876 39.2702 25.5681 39.2165 25.6396C38.9929 25.9885 38.7514 26.3195 38.483 26.6237C38.3936 26.7221 38.3041 26.8205 38.2147 26.91C38.3131 27.4289 38.3757 27.9656 38.3846 28.5113C38.984 28.0282 39.5207 27.4646 39.9769 26.8295C40.1558 26.579 40.3257 26.3195 40.4778 26.0512C40.9072 25.3086 41.2203 24.5214 41.4081 23.7252C41.4797 23.421 41.5423 23.1168 41.5781 22.8127C41.6497 22.3028 41.6675 21.7839 41.6497 21.274C41.6407 20.9698 41.6049 20.6388 41.5513 20.3078Z" fill="#000E4F"/>
<path d="M41.4168 33.7446C41.22 32.9484 40.9158 32.1701 40.4865 31.4187C40.3344 31.1503 40.1644 30.8908 39.9855 30.6404C39.5293 30.0052 38.9926 29.4416 38.3932 28.9585C38.3843 29.5042 38.3217 30.041 38.2233 30.5598C38.3127 30.6493 38.4022 30.7477 38.4916 30.8461C38.6884 31.0698 38.8763 31.3113 39.0463 31.5529C39.1089 31.6423 39.1715 31.7318 39.2252 31.8302C39.2699 31.9107 39.3236 31.9823 39.3683 32.0628C39.4398 32.197 39.5114 32.3222 39.583 32.4564C39.9229 33.1363 40.1555 33.852 40.2718 34.5677C40.3165 34.854 40.3523 35.1492 40.3702 35.4355C40.397 35.9275 40.3702 36.4106 40.2986 36.8937C40.2539 37.2157 40.1823 37.5288 40.1018 37.833C39.8961 38.5845 39.5651 39.3002 39.1357 39.9532C38.5095 40.9015 37.6687 41.7245 36.6221 42.3239C35.5755 42.9323 34.4394 43.2543 33.3123 43.3169C33.1692 43.3259 33.0171 43.3259 32.874 43.3259C32.2389 43.3259 31.6038 43.2454 30.9955 43.0843C30.584 43.4422 30.1457 43.7553 29.6895 44.0326C29.9757 44.14 30.2798 44.2384 30.584 44.3189C31.237 44.4978 31.8989 44.5962 32.5609 44.6141C32.6682 44.6141 32.7756 44.6231 32.8829 44.6231C34.4126 44.6231 35.9243 44.2205 37.2751 43.4332C38.76 42.5744 39.8961 41.3488 40.6475 39.9353C41.1037 39.0676 41.4168 38.1282 41.5688 37.162C41.6225 36.831 41.6583 36.5 41.6672 36.1601C41.6851 35.6502 41.6672 35.1313 41.5957 34.6214C41.542 34.353 41.4883 34.0488 41.4168 33.7446Z" fill="#000E4F"/>
<path d="M17.5328 30.6496C17.3539 30.9001 17.1839 31.1596 17.0319 31.428C16.6025 32.1706 16.2894 32.9579 16.1016 33.7542C16.4504 34.0673 16.844 34.3536 17.2555 34.5862C17.3807 33.8615 17.6044 33.1547 17.9443 32.4748C18.0069 32.3406 18.0785 32.2064 18.159 32.0811C18.2037 32.0006 18.2484 31.9201 18.3021 31.8485C18.3647 31.759 18.4184 31.6606 18.481 31.5711C18.651 31.3206 18.8388 31.088 19.0356 30.8643C19.1251 30.7659 19.2145 30.6675 19.304 30.578C19.2056 30.0591 19.143 29.5223 19.134 28.9766C18.5257 29.4507 17.989 30.0144 17.5328 30.6496Z" fill="#000E4F"/>
<path d="M30.7625 42.2168C31.3618 41.6443 31.8807 40.9823 32.3011 40.2487C32.6679 39.6135 32.9452 38.9515 33.142 38.2627C33.2761 37.7975 33.3656 37.3323 33.4193 36.8581C33.4461 36.6434 33.464 36.4198 33.4729 36.2051C33.2672 36.3393 33.0525 36.4645 32.8289 36.5808C32.5963 36.7061 32.3548 36.8134 32.1043 36.9208C32.0596 37.2518 31.988 37.5917 31.8896 37.9138C31.8538 38.0211 31.827 38.1285 31.7912 38.2358C31.657 38.6205 31.496 38.9963 31.3082 39.363C31.2635 39.4436 31.2187 39.5241 31.174 39.6046C31.1024 39.7388 31.0219 39.864 30.9414 39.9893C30.521 40.6244 30.0201 41.1791 29.4565 41.6443C29.2329 41.8322 28.9913 42.0021 28.7498 42.1632C28.3383 42.4315 27.9 42.6552 27.4438 42.8341C27.1486 42.9504 26.8445 43.0488 26.5314 43.1293C25.78 43.3262 24.9928 43.3977 24.2145 43.353C23.0785 43.2904 21.9514 42.9683 20.9048 42.36C19.8582 41.7516 19.0084 40.9376 18.3911 39.9893C17.9618 39.3362 17.6397 38.6205 17.425 37.869C16.9152 37.6901 16.4232 37.4754 15.958 37.216C16.1101 38.1822 16.4232 39.1215 16.8794 39.9893C17.6308 41.4027 18.7668 42.6284 20.2518 43.4872C21.6114 44.2744 23.1232 44.677 24.6439 44.677C24.7513 44.677 24.8586 44.677 24.9659 44.6681C25.6279 44.6412 26.2899 44.5428 26.9429 44.3728C27.247 44.2923 27.5422 44.1939 27.8374 44.0866C28.1505 43.9703 28.4546 43.8271 28.7498 43.6751C29.215 43.4335 29.6443 43.1562 30.0558 42.8431C30.3063 42.6373 30.5389 42.4315 30.7625 42.2168Z" fill="#000E4F"/>
<path d="M20.5829 19.9326C19.7241 19.9326 18.8922 20.0579 18.105 20.2905C18.0066 20.7557 17.953 21.2299 17.9619 21.7041C18.6417 21.4446 19.3753 21.2925 20.1356 21.2478C20.2877 21.2389 20.4308 21.2299 20.5829 21.2299C20.6455 21.2299 20.6992 21.2299 20.7618 21.2299C20.7976 21.2299 20.8244 21.2299 20.8602 21.2299C21.2806 21.2478 21.6832 21.2925 22.0857 21.3731C22.2109 21.3999 22.3451 21.4267 22.4703 21.4625C22.8729 21.1136 23.3112 20.8005 23.7674 20.5142C22.7745 20.1473 21.701 19.9326 20.5829 19.9326Z" fill="#000E4F"/>
<path d="M18.1051 37.2248C18.8923 37.4574 19.7242 37.5826 20.5829 37.5826C20.6813 37.5826 20.7887 37.5826 20.8871 37.5737C21.7279 37.5468 22.533 37.4037 23.2934 37.1532C23.2308 36.7059 23.2039 36.2586 23.2039 35.8113C22.8372 35.9455 22.4615 36.0528 22.0768 36.1334C21.6832 36.2139 21.2717 36.2586 20.8513 36.2765C20.7618 36.2765 20.6724 36.2854 20.574 36.2854C20.4219 36.2854 20.2698 36.2765 20.1267 36.2675C19.3664 36.2228 18.6329 36.0618 17.953 35.8113C17.6757 35.7129 17.4073 35.5876 17.1479 35.4535C16.7096 35.2298 16.2981 34.9614 15.9224 34.6662C15.672 34.4694 15.4304 34.2547 15.2068 34.0221C14.6611 33.4674 14.2049 32.8323 13.8561 32.1255C13.3462 31.1146 13.0599 29.9695 13.0599 28.7618C13.0599 27.5541 13.3462 26.409 13.8561 25.3981C14.2049 24.7003 14.6701 24.0562 15.2068 23.5015C15.1084 22.9737 15.0458 22.4369 15.0368 21.9001C14.2765 22.5174 13.6235 23.2599 13.0957 24.0919C12.2459 25.4517 11.7539 27.0441 11.7539 28.7618C11.7539 30.4794 12.2459 32.0808 13.0957 33.4316C13.6145 34.2636 14.2765 35.0062 15.0368 35.6234C15.2963 35.8381 15.5736 36.0349 15.8509 36.2139C16.2802 36.4912 16.7364 36.7238 17.2195 36.9296C17.5147 37.0369 17.8099 37.1353 18.1051 37.2248Z" fill="#000E4F"/>
<path d="M16.1018 23.7699C16.2986 24.5661 16.6027 25.3444 17.0321 26.0958C17.1842 26.3642 17.3541 26.6237 17.5331 26.8741C17.9893 27.5093 18.526 28.0729 19.1253 28.556C19.1343 28.0103 19.1969 27.4735 19.2953 26.9547C19.2058 26.8652 19.1164 26.7668 19.0269 26.6684C18.7586 26.3642 18.517 26.0332 18.2934 25.6843C18.2487 25.6038 18.195 25.5322 18.1503 25.4517C18.0787 25.3175 18.0072 25.1923 17.9356 25.0581C17.7746 24.736 17.6404 24.414 17.5331 24.083C17.4078 23.7072 17.3094 23.3315 17.2468 22.9468C17.2021 22.6605 17.1663 22.3653 17.1484 22.079C17.1216 21.587 17.1484 21.1039 17.22 20.6208C17.2647 20.2988 17.3363 19.9857 17.4168 19.6815C17.4525 19.5652 17.4883 19.4489 17.5241 19.3326C17.7299 18.7153 18.0161 18.1159 18.3829 17.5613C19.009 16.613 19.8499 15.79 20.8965 15.1906C21.9431 14.5822 23.0792 14.2602 24.2063 14.1976C24.3494 14.1886 24.5015 14.1886 24.6446 14.1886C25.2797 14.1886 25.9148 14.2691 26.5231 14.4302C26.8362 14.5107 27.1403 14.6091 27.4355 14.7254C27.8917 14.9043 28.3301 15.1279 28.7415 15.3963C28.9831 15.5574 29.2246 15.7273 29.4482 15.9152C30.0118 16.3804 30.5127 16.9351 30.9331 17.5702C31.0137 17.6955 31.0942 17.8207 31.1657 17.9549C31.2104 18.0354 31.2552 18.1159 31.2999 18.1965C31.4967 18.5632 31.6577 18.939 31.7829 19.3237C31.8277 19.4489 31.8635 19.5741 31.8992 19.6994C32.4091 19.8783 32.9011 20.093 33.3663 20.3525C33.2142 19.3952 32.9011 18.4559 32.436 17.5702C32.3912 17.4808 32.3376 17.3913 32.2839 17.3018C31.8545 16.5683 31.3357 15.9063 30.7453 15.3337C30.5217 15.119 30.2891 14.9132 30.0386 14.7254C29.6271 14.4123 29.1978 14.1349 28.7326 13.8934C28.4374 13.7413 28.1333 13.6071 27.8202 13.4819C27.5339 13.3745 27.2298 13.2761 26.9256 13.1956C26.2726 13.0167 25.6107 12.9183 24.9487 12.9004C23.3117 12.8378 21.6837 13.2403 20.2345 14.0813C18.7496 14.9401 17.6136 16.1657 16.8622 17.5792C16.4059 18.4469 16.0929 19.3863 15.9408 20.3525C15.8871 20.6835 15.8513 21.0145 15.8424 21.3544C15.8245 21.8643 15.8424 22.3832 15.914 22.8931C15.9676 23.1615 16.0213 23.4657 16.1018 23.7699Z" fill="#000E4F"/>
<path d="M26.8532 37.3679C26.7549 37.35 26.6656 37.3232 26.5674 37.2964C26.6656 37.3232 26.7639 37.35 26.8532 37.3679Z" fill="#000E4F"/>
<path d="M26.2725 37.2246C26.3347 37.2424 26.397 37.2603 26.4593 37.2781C26.397 37.2603 26.3347 37.2424 26.2725 37.2246Z" fill="#000E4F"/>
<path d="M30.932 37.3052C30.8427 37.332 30.7534 37.3499 30.6641 37.3678C30.7534 37.3499 30.8427 37.332 30.932 37.3052Z" fill="#000E4F"/>
<path d="M31.2355 37.2246C31.1822 37.2424 31.1199 37.2513 31.0576 37.2692C31.1199 37.2513 31.1822 37.2424 31.2355 37.2246Z" fill="#000E4F"/>
<path d="M26.8896 37.377C26.9969 37.4038 27.1041 37.4217 27.2203 37.4485C27.3275 37.4664 27.4348 37.4843 27.551 37.5022C27.5867 37.5112 27.6314 37.5112 27.6671 37.5112C27.6314 37.5022 27.5867 37.5022 27.542 37.4933C27.3275 37.4664 27.1041 37.4217 26.8896 37.377Z" fill="#000E4F"/>
<path d="M29.3852 37.5557C29.1795 37.5736 28.9738 37.5826 28.7591 37.5826C28.5086 37.5826 28.2581 37.5736 28.0166 37.5468C28.0524 37.5468 28.0971 37.5557 28.1329 37.5557C28.3386 37.5736 28.5444 37.5826 28.7591 37.5826C29.1705 37.5826 29.5731 37.5557 29.9667 37.5021C30.074 37.4842 30.1903 37.4663 30.2977 37.4484C30.3961 37.4305 30.5034 37.4036 30.6018 37.3857C30.3961 37.4305 30.1814 37.4663 29.9667 37.4931C29.7699 37.5199 29.582 37.5378 29.3852 37.5557Z" fill="#000E4F"/>
<path d="M21.7992 34.1741C21.6739 34.013 21.5577 33.852 21.4503 33.6909C21.4235 33.6552 21.4056 33.6194 21.3877 33.5925C21.5129 33.7983 21.6561 33.9951 21.7992 34.1741C22.0854 34.5409 22.3896 34.8809 22.7295 35.194C22.7742 35.2387 22.8189 35.2745 22.8726 35.3193C22.8279 35.2745 22.7832 35.2387 22.7295 35.194C22.3985 34.8809 22.0854 34.5409 21.7992 34.1741Z" fill="#000E4F"/>
<path d="M34.5016 22.07C34.4838 22.0521 34.466 22.0432 34.4482 22.0254C34.5105 22.0789 34.5728 22.1413 34.644 22.1947C34.5906 22.1502 34.5461 22.1056 34.5016 22.07Z" fill="#000E4F"/>
<path d="M36.4521 24.4497C36.5056 24.5479 36.5591 24.6549 36.6125 24.7531C36.5591 24.6549 36.5056 24.5568 36.4521 24.4497Z" fill="#000E4F"/>
<path d="M21.2444 28.3054C21.2444 28.3323 21.2444 28.3502 21.2355 28.377C21.2266 28.5023 21.2266 28.6275 21.2266 28.7528C21.2266 28.6275 21.2266 28.5023 21.2355 28.377C21.2444 28.3502 21.2444 28.3323 21.2444 28.3054Z" fill="#000E4F"/>
<path d="M23.0066 22.07C22.9621 22.1145 22.9176 22.1502 22.8643 22.1947C22.9265 22.1413 22.9888 22.0789 23.06 22.0254C23.0422 22.0343 23.0244 22.0521 23.0066 22.07Z" fill="#000E4F"/>
<path d="M36.1299 23.9219C36.2014 24.0382 36.2819 24.1544 36.3446 24.2707C36.273 24.1544 36.2014 24.0382 36.1299 23.9219Z" fill="#000E4F"/>
<path d="M21.7998 31.6155C21.8086 31.6331 21.8086 31.6419 21.8174 31.6596C21.8174 31.6508 21.8086 31.6508 21.8086 31.6419C21.8086 31.6331 21.7998 31.6243 21.7998 31.6155Z" fill="#000E4F"/>
<path d="M21.2453 29.2539C21.2453 29.3166 21.2542 29.3704 21.2632 29.4331C21.2632 29.4689 21.2721 29.5048 21.2721 29.5406C21.2542 29.4062 21.2453 29.2718 21.2363 29.1375C21.2453 29.1822 21.2453 29.2181 21.2453 29.2539Z" fill="#000E4F"/>
<path d="M21.1562 24.2886C21.2367 24.1544 21.3171 24.0292 21.3975 23.895C21.3171 24.0202 21.2367 24.1544 21.1562 24.2886Z" fill="#000E4F"/>
<path d="M20.3154 26.2031C20.3333 26.1494 20.3511 26.0869 20.369 26.0332C20.3511 26.0958 20.3333 26.1494 20.3154 26.2031Z" fill="#000E4F"/>
<path d="M21.6739 31.2933C21.6739 31.2844 21.665 31.2755 21.665 31.2666C21.6917 31.329 21.7095 31.4003 21.7362 31.4627C21.7362 31.4538 21.7273 31.4449 21.7273 31.436C21.7095 31.3914 21.6917 31.3379 21.6739 31.2933Z" fill="#000E4F"/>
<path d="M21.5669 30.9622C21.558 30.9265 21.5402 30.8909 21.5312 30.8552C21.558 30.9444 21.5847 31.0335 21.6114 31.1137C21.6025 31.087 21.5936 31.0602 21.5847 31.0335C21.5847 31.0157 21.5758 30.9889 21.5669 30.9622Z" fill="#000E4F"/>
<path d="M20.8779 24.8076C20.9405 24.6823 21.012 24.5571 21.0745 24.4319C21.003 24.5482 20.9405 24.6734 20.8779 24.8076Z" fill="#000E4F"/>
<path d="M23.0605 35.4893C23.0783 35.5071 23.0961 35.516 23.1139 35.5338C23.1406 35.5605 23.1761 35.5872 23.2117 35.614C23.185 35.5872 23.1495 35.5605 23.1139 35.5427C23.0961 35.516 23.0783 35.5071 23.0605 35.4893Z" fill="#000E4F"/>
<path d="M37.1225 31.5618C37.1314 31.535 37.1403 31.5082 37.1493 31.4724C37.1314 31.5261 37.1136 31.5797 37.0957 31.6334C37.1046 31.6155 37.1136 31.5887 37.1225 31.5618Z" fill="#000E4F"/>
<path d="M37.2565 31.1145C37.2387 31.1769 37.2209 31.2393 37.2031 31.3017C37.2209 31.2482 37.2387 31.1858 37.2565 31.1145Z" fill="#000E4F"/>
<path d="M37.2568 26.3911C37.2746 26.4713 37.3013 26.5516 37.3191 26.6318C37.3013 26.5516 37.2746 26.4713 37.2568 26.3911Z" fill="#000E4F"/>
<path d="M35.7102 34.1741C35.4239 34.532 35.1198 34.8719 34.7798 35.1851C34.7351 35.2298 34.6904 35.2656 34.6367 35.3103C34.6814 35.2656 34.7351 35.2298 34.7798 35.1851C35.1198 34.8809 35.4239 34.5409 35.7102 34.1741C35.8533 33.9952 35.9875 33.8073 36.1127 33.6194C36.0948 33.6462 36.0769 33.6731 36.068 33.691C35.9517 33.8609 35.8354 34.022 35.7102 34.1741Z" fill="#000E4F"/>
<path d="M36.4335 33.0828C36.4069 33.1273 36.3802 33.1807 36.3535 33.2253C36.3802 33.1807 36.4069 33.1362 36.4335 33.0828Z" fill="#000E4F"/>
<path d="M36.6918 32.5908C36.6741 32.6263 36.6564 32.6705 36.6299 32.706C36.6564 32.6705 36.6741 32.6263 36.6918 32.5908Z" fill="#000E4F"/>
<path d="M36.7119 24.9507C36.7745 25.0849 36.846 25.228 36.8996 25.3711C36.837 25.228 36.7745 25.0849 36.7119 24.9507Z" fill="#000E4F"/>
<path d="M22.8381 33.3969L22.8281 33.387L22.8381 33.3969Z" fill="#000E4F"/>
<path d="M37.1494 26.0332C37.1673 26.0869 37.1851 26.1494 37.203 26.212C37.1851 26.1494 37.1673 26.0869 37.1494 26.0332Z" fill="#000E4F"/>
<path d="M37.4983 29.9249C37.4804 30.0412 37.4625 30.1486 37.4447 30.256C37.4178 30.426 37.3821 30.596 37.3463 30.757C37.3374 30.8018 37.3284 30.8376 37.3105 30.8823C37.3195 30.8376 37.3284 30.8018 37.3463 30.757C37.3821 30.587 37.4178 30.426 37.4447 30.256C37.4715 30.1486 37.4894 30.0323 37.4983 29.9249C37.5341 29.6654 37.552 29.4059 37.5698 29.1375C37.5788 29.0123 37.5788 28.887 37.5788 28.7617C37.5788 28.887 37.5788 29.0123 37.5698 29.1375C37.5609 29.397 37.5341 29.6565 37.4983 29.9249Z" fill="#000E4F"/>
<path d="M36.9443 25.4875C36.998 25.6128 37.0426 25.7469 37.0873 25.8722C37.0426 25.738 36.998 25.6128 36.9443 25.4875Z" fill="#000E4F"/>
<path d="M20.1982 26.6318C20.216 26.5516 20.2338 26.4713 20.2605 26.3911C20.2338 26.4713 20.216 26.5516 20.1982 26.6318Z" fill="#000E4F"/>
<path d="M34.3047 35.605C34.3047 35.605 34.3047 35.614 34.3047 35.605C34.3403 35.5872 34.3669 35.5605 34.4025 35.5338C34.4203 35.516 34.4381 35.5071 34.4559 35.4893C34.4381 35.5071 34.4203 35.516 34.4025 35.5338C34.3669 35.5605 34.3314 35.5872 34.3047 35.605Z" fill="#000E4F"/>
<path d="M20.3949 31.5619C20.4039 31.5887 20.4128 31.6156 20.4217 31.6424C20.4039 31.5887 20.386 31.5351 20.3682 31.4814C20.3771 31.5083 20.386 31.5351 20.3949 31.5619Z" fill="#000E4F"/>
<path d="M20.8956 32.7509C20.86 32.6885 20.8333 32.6261 20.8066 32.5637C20.8333 32.6261 20.8689 32.6885 20.8956 32.7509Z" fill="#000E4F"/>
<path d="M20.0638 30.256C20.0459 30.1486 20.028 30.0323 20.0102 29.9249C19.9744 29.6654 19.9565 29.397 19.9386 29.1375C19.9297 29.0123 19.9297 28.887 19.9297 28.7617C19.9297 28.887 19.9297 29.0123 19.9386 29.1375C19.9476 29.4059 19.9744 29.6654 20.0102 29.9249C20.028 30.0323 20.0459 30.1486 20.0638 30.256C20.0906 30.426 20.1264 30.596 20.1622 30.757C20.1711 30.7928 20.18 30.8375 20.189 30.8733C20.18 30.8286 20.1711 30.7928 20.1622 30.7481C20.1264 30.596 20.0906 30.426 20.0638 30.256Z" fill="#000E4F"/>
<path d="M20.8153 24.9241C20.7348 25.0941 20.6543 25.2641 20.5828 25.443C20.5202 25.5862 20.4755 25.7294 20.4219 25.8815C20.4755 25.7383 20.5292 25.5951 20.5828 25.452C20.6543 25.2641 20.7348 25.0941 20.8153 24.9241Z" fill="#000E4F"/>
<path d="M23.2397 22.5002C23.2397 22.536 23.2487 22.5807 23.2487 22.6165C23.2755 22.9028 23.3202 23.198 23.3739 23.4843C24.7425 22.0886 26.6479 21.2208 28.7679 21.2208C30.8522 21.2208 32.7575 22.0618 34.1351 23.4217C34.1888 23.1533 34.2246 22.8849 34.2514 22.6165C34.2514 22.5807 34.2604 22.536 34.2604 22.5002C34.2783 22.3481 34.2872 22.1871 34.2872 22.035C34.2872 21.9902 34.2872 21.9455 34.2872 21.9097C34.2335 21.865 34.1799 21.8202 34.1172 21.7755C33.9115 21.6145 33.6879 21.4624 33.4732 21.3192C33.2674 21.185 33.0438 21.0598 32.8291 20.9434C32.5965 20.8182 32.355 20.7108 32.1045 20.6035C31.9972 20.5587 31.8988 20.5229 31.7915 20.4782C31.6304 20.4156 31.4694 20.3619 31.3084 20.3172C30.8701 20.183 30.4228 20.0846 29.9577 20.0219C29.5641 19.9682 29.1615 19.9414 28.75 19.9414C28.5354 19.9414 28.3296 19.9504 28.1239 19.9682C27.9271 19.9861 27.7303 20.004 27.5424 20.0309C27.0773 20.0935 26.63 20.1919 26.1917 20.3261C26.0664 20.3619 25.9502 20.4066 25.8339 20.4424C25.7891 20.4603 25.7534 20.4693 25.7086 20.4872C25.6013 20.5229 25.4939 20.5677 25.3955 20.6124C25.1451 20.7108 24.9036 20.8271 24.671 20.9524C24.4473 21.0687 24.2327 21.194 24.0269 21.3282C23.8033 21.4713 23.5886 21.6234 23.3829 21.7844C23.3292 21.8292 23.2755 21.8739 23.2129 21.9187C23.2129 21.9634 23.2129 22.0081 23.2129 22.0529C23.2218 22.1871 23.2308 22.3481 23.2397 22.5002Z" fill="#000E4F"/>
<path d="M21.1634 33.2431C21.1278 33.1807 21.0922 33.1183 21.0566 33.0559C21.0922 33.1183 21.1278 33.1807 21.1634 33.2431Z" fill="#000E4F"/>
<path d="M33.4919 36.196C33.7156 36.0528 33.9302 35.9008 34.136 35.7397C34.1897 35.695 34.2433 35.6503 34.3059 35.6055C34.3328 35.5787 34.3686 35.5519 34.4043 35.534C34.4222 35.5161 34.4401 35.5071 34.458 35.4892C34.4759 35.4713 34.4938 35.4624 34.5117 35.4445C34.5564 35.3998 34.6011 35.364 34.6548 35.3193C34.6995 35.2745 34.7443 35.2387 34.7979 35.194C35.1289 34.8809 35.442 34.541 35.7283 34.1831C35.8535 34.0221 35.9698 33.8611 36.0771 33.7C36.095 33.6732 36.1129 33.6463 36.1218 33.6285C36.2113 33.5032 36.2918 33.369 36.3634 33.2348C36.3902 33.1901 36.417 33.1364 36.4439 33.0917C36.5154 32.9664 36.5781 32.8412 36.6407 32.716C36.6586 32.6802 36.6854 32.6354 36.7033 32.5997C36.7838 32.4297 36.8643 32.2597 36.9359 32.0808C36.9985 31.9376 37.0432 31.7945 37.0969 31.6424C37.1148 31.5887 37.1327 31.5351 37.1506 31.4814C37.1684 31.4277 37.1863 31.3651 37.2042 31.3114C37.2221 31.2488 37.24 31.1862 37.2579 31.1236C37.2758 31.043 37.3026 30.9625 37.3205 30.891C37.3295 30.8462 37.3384 30.8104 37.3563 30.7657C37.3921 30.5957 37.4279 30.4347 37.4547 30.2647C37.4726 30.1574 37.4905 30.0411 37.5084 29.9337C37.5442 29.6743 37.562 29.4059 37.5799 29.1465C37.5889 29.0212 37.5889 28.896 37.5889 28.7707C37.5889 28.6455 37.5889 28.5202 37.5799 28.395C37.571 28.1266 37.5442 27.8672 37.5084 27.6077C37.4905 27.4914 37.4726 27.3841 37.4547 27.2767C37.4279 27.1068 37.3921 26.9368 37.3563 26.7758C37.3474 26.731 37.3384 26.6952 37.3295 26.6505C37.3116 26.57 37.2937 26.4895 37.2668 26.409C37.249 26.3463 37.2311 26.2837 37.2132 26.2211C37.1953 26.1585 37.1774 26.1048 37.1595 26.0422C37.1506 26.0153 37.1416 25.9885 37.1327 25.9617C37.1237 25.9348 37.1148 25.908 37.1058 25.8811C37.0611 25.7559 37.0164 25.6217 36.9627 25.4965C36.9538 25.4786 36.9538 25.4607 36.9448 25.4517C36.9359 25.4249 36.9269 25.407 36.918 25.3802C36.8554 25.237 36.7927 25.0939 36.7301 24.9597C36.7033 24.8971 36.6675 24.8345 36.6407 24.7718C36.587 24.6645 36.5333 24.5661 36.4797 24.4677C36.4439 24.405 36.4081 24.3424 36.3723 24.2798C36.3008 24.1635 36.2292 24.0472 36.1576 23.9309C36.0235 23.7341 35.8893 23.5283 35.7372 23.3405C35.4509 22.9826 35.1468 22.6427 34.8069 22.3296C34.7622 22.2848 34.7174 22.249 34.6638 22.2043C34.6011 22.1506 34.5385 22.088 34.467 22.0343C34.4491 22.0164 34.4312 22.0075 34.4133 21.9896C34.3865 21.9628 34.3507 21.9359 34.3149 21.9091C34.3149 21.9538 34.3149 21.9986 34.3149 22.0343C34.3059 22.1864 34.297 22.3475 34.2881 22.4995C34.2881 22.5353 34.2791 22.58 34.2791 22.6158C34.2523 22.8842 34.2165 23.1526 34.1628 23.421C35.5315 24.7808 36.3723 26.6684 36.3365 28.7528C36.2471 33.0559 32.9284 36.3302 28.8046 36.2854C27.8653 36.2765 26.9618 36.0976 26.1299 35.7845C26.0852 35.7666 26.0315 35.7487 25.9868 35.7308C25.951 35.7218 25.9242 35.7039 25.8884 35.6861C25.8705 35.6771 25.8526 35.6682 25.8347 35.6592C25.7989 35.6413 25.7632 35.6324 25.7274 35.6145C25.6827 35.5966 25.6379 35.5698 25.5932 35.5519C25.5485 35.534 25.5038 35.5161 25.468 35.4892C25.4232 35.4713 25.3875 35.4535 25.3427 35.4266C25.307 35.4087 25.2712 35.3819 25.2354 35.364C25.1996 35.3461 25.1728 35.3282 25.137 35.3103C25.0744 35.2745 25.0028 35.2387 24.9402 35.194C24.8776 35.1582 24.8239 35.1224 24.7613 35.0867C24.7345 35.0688 24.7076 35.0598 24.6808 35.0419C24.6718 35.033 24.6539 35.024 24.645 35.0151C24.5734 34.9614 24.4929 34.9167 24.4214 34.863C24.3945 34.8451 24.3677 34.8272 24.3409 34.8093C24.323 34.8004 24.314 34.7914 24.2961 34.7825C24.2693 34.7646 24.2514 34.7467 24.2246 34.7288C24.1888 34.702 24.1441 34.6751 24.1083 34.6394C24.0814 34.6215 24.0546 34.5946 24.0278 34.5767C24.0009 34.5588 23.9741 34.532 23.9473 34.5141C23.9383 34.5052 23.9294 34.4962 23.9204 34.4873C23.9025 34.4694 23.8847 34.4515 23.8578 34.4336C23.7863 34.371 23.7236 34.3173 23.6521 34.2547C23.6431 34.2457 23.6252 34.2278 23.6163 34.2189C23.5358 34.1473 23.4642 34.0758 23.3837 33.9952C23.3837 33.9952 23.3748 33.9863 23.3748 33.9773C23.1869 33.7805 23.008 33.5837 22.847 33.369L22.838 33.3601C22.4892 32.9128 22.185 32.4297 21.9435 31.9108C21.9435 31.9019 21.9346 31.9019 21.9346 31.8929C21.9167 31.8661 21.9077 31.8303 21.8898 31.8035C21.863 31.7498 21.8451 31.6961 21.8183 31.6424C21.8093 31.6245 21.8093 31.6156 21.8004 31.5977C21.7825 31.544 21.7646 31.4993 21.7378 31.4456C21.7109 31.383 21.6841 31.3114 21.6662 31.2488C21.6483 31.2041 21.6304 31.1504 21.6125 31.1057C21.5857 31.0162 21.5589 30.9267 21.532 30.8462C21.5231 30.8194 21.5141 30.7925 21.5052 30.7657C21.4426 30.5331 21.3889 30.3005 21.3442 30.059C21.3263 29.9785 21.3173 29.8979 21.3084 29.8174C21.2905 29.728 21.2816 29.6296 21.2726 29.5401V29.5312C21.2726 29.4954 21.2637 29.4596 21.2637 29.4238C21.2547 29.3612 21.2547 29.3075 21.2458 29.2449C21.2458 29.2091 21.2368 29.1733 21.2368 29.1286V29.1196C21.2279 28.9944 21.2279 28.8691 21.2279 28.7439C21.2279 28.6186 21.2279 28.4934 21.2368 28.3682C21.2368 28.3413 21.2368 28.3234 21.2458 28.2966C21.2458 28.2876 21.2458 28.2698 21.2458 28.2608C21.2458 28.1982 21.2547 28.1356 21.2637 28.0819C21.2637 28.055 21.2726 28.0193 21.2726 27.9835V27.9745C21.2726 27.9656 21.2726 27.9566 21.2726 27.9477C21.2816 27.8761 21.2905 27.8224 21.2995 27.7598C21.5141 26.1048 22.2655 24.6198 23.3748 23.4836C23.3211 23.1973 23.2764 22.9021 23.2495 22.6158C23.2495 22.58 23.2406 22.5353 23.2406 22.4995C23.2227 22.3475 23.2138 22.1864 23.2138 22.0343C23.2138 21.9896 23.2138 21.9449 23.2138 21.9001C23.178 21.927 23.1511 21.9538 23.1154 21.9807C23.0975 21.9986 23.0796 22.0075 23.0617 22.0254C22.9991 22.0791 22.9364 22.1417 22.8649 22.1954C22.8202 22.2401 22.7665 22.2759 22.7218 22.3206C22.3908 22.6337 22.0777 22.9737 21.7914 23.3315C21.6483 23.5104 21.5141 23.6983 21.3889 23.8951C21.3084 24.0204 21.2189 24.1546 21.1474 24.2887C21.1205 24.3335 21.0937 24.3872 21.0669 24.4319C20.9953 24.5571 20.9327 24.6824 20.8701 24.8076C20.8522 24.8434 20.8254 24.8881 20.8075 24.9239C20.727 25.0939 20.6464 25.2639 20.5749 25.4428C20.5212 25.5859 20.4675 25.7291 20.4139 25.8722C20.4049 25.899 20.396 25.9259 20.387 25.9527C20.3781 25.9796 20.3691 26.0064 20.3602 26.0422C20.3423 26.0959 20.3244 26.1585 20.3065 26.2122C20.2886 26.2748 20.2707 26.3374 20.2529 26.4C20.235 26.4805 20.2081 26.5611 20.1902 26.6416C20.1813 26.6863 20.1723 26.7221 20.1545 26.7668C20.1187 26.9368 20.0829 27.0978 20.0561 27.2678C20.0382 27.3751 20.0203 27.4914 20.0024 27.5988C19.9666 27.8582 19.9487 28.1266 19.9308 28.3861C19.9219 28.5113 19.9219 28.6365 19.9219 28.7618C19.9219 28.887 19.9219 29.0123 19.9308 29.1375C19.9398 29.4059 19.9666 29.6653 20.0024 29.9248C20.0203 30.0411 20.0382 30.1484 20.0561 30.2558C20.0829 30.4258 20.1187 30.5957 20.1545 30.7568C20.1634 30.8015 20.1723 30.8373 20.1813 30.882C20.1992 30.9625 20.2171 31.043 20.2439 31.1236C20.2618 31.1862 20.2797 31.2488 20.2976 31.3114C20.3155 31.374 20.3334 31.4277 20.3513 31.4903C20.3691 31.544 20.387 31.5977 20.4049 31.6514C20.4496 31.7766 20.4944 31.9108 20.548 32.0361C20.557 32.0539 20.557 32.0718 20.5659 32.0808C20.5749 32.1076 20.5838 32.1255 20.5928 32.1523C20.6554 32.2955 20.718 32.4386 20.7806 32.5728C20.8075 32.6354 20.8432 32.6981 20.8701 32.7607C20.9238 32.868 20.9774 32.9664 21.0311 33.0649C21.0669 33.1275 21.1027 33.1901 21.1384 33.2527C21.21 33.369 21.2816 33.4853 21.3621 33.6016C21.38 33.6374 21.4068 33.6732 21.4247 33.7C21.541 33.8611 21.6573 34.031 21.7736 34.1831C22.0598 34.541 22.3639 34.8809 22.7039 35.194C22.7486 35.2387 22.7933 35.2745 22.847 35.3193C22.8917 35.364 22.9364 35.4087 22.9901 35.4445C23.008 35.4624 23.0259 35.4713 23.0438 35.4892C23.0617 35.5071 23.0796 35.5161 23.0975 35.534C23.1243 35.5608 23.1601 35.5876 23.1959 35.6055C23.2495 35.6503 23.3032 35.695 23.3658 35.7397C23.5716 35.9008 23.7863 36.0528 24.0099 36.196C24.2156 36.3302 24.4393 36.4554 24.6539 36.5717C24.8865 36.697 25.1281 36.8043 25.3785 36.9117C25.4859 36.9564 25.5843 36.9922 25.6916 37.0369C25.8526 37.0995 26.0136 37.1532 26.1747 37.1979C26.2015 37.2069 26.2283 37.2158 26.2552 37.2158C26.3178 37.2337 26.3804 37.2516 26.443 37.2695C26.4788 37.2785 26.5146 37.2874 26.5504 37.2963C26.6488 37.3232 26.7382 37.3411 26.8366 37.3679C26.8456 37.3679 26.8634 37.3769 26.8724 37.3769C27.0871 37.4216 27.3107 37.4663 27.5254 37.4932C27.5612 37.5021 27.6059 37.5021 27.6506 37.511C27.7669 37.5289 27.8832 37.5379 27.9906 37.5468C28.2321 37.5647 28.4825 37.5826 28.733 37.5826C28.9477 37.5826 29.1534 37.5737 29.3592 37.5558C29.556 37.5379 29.7528 37.52 29.9406 37.4932C30.1553 37.4663 30.3611 37.4216 30.5757 37.3858C30.5936 37.3769 30.6205 37.3769 30.6384 37.3769C30.7278 37.359 30.8173 37.3321 30.9067 37.3142C30.9515 37.3053 30.9962 37.2874 31.0409 37.2785C31.1035 37.2606 31.1572 37.2427 31.2198 37.2248C31.2466 37.2158 31.2735 37.2069 31.3003 37.2069C31.4256 37.1711 31.5418 37.1264 31.6581 37.0906C31.7029 37.0727 31.7386 37.0637 31.7834 37.0459C31.8907 37.0101 31.9981 36.9653 32.0965 36.9206C32.3469 36.8222 32.5884 36.7059 32.821 36.5807C33.0625 36.4554 33.2772 36.3302 33.4919 36.196Z" fill="#000E4F"/>
<path d="M32.7311 27.1692C32.7311 28.4485 32.3017 30.6581 28.8578 32.4921C25.1544 30.5329 24.9039 28.1085 24.9397 27.3839V27.2944C24.9845 26.3193 25.7895 25.5499 26.7735 25.5499C27.9006 25.5499 28.8131 26.7398 28.8131 26.7398V25.1653C28.2584 24.6553 27.5339 24.3601 26.7735 24.3601C25.1544 24.3601 23.8395 25.6394 23.75 27.2586V27.3839C23.75 28.2785 24.0452 31.3828 28.5626 33.6372L28.822 33.7624L29.0814 33.6372C34.2339 31.0876 33.894 27.3839 33.894 27.1244H32.749V27.1692H32.7311Z" fill="white"/>
<path d="M24.9045 27.1244H23.7595C23.7595 27.3839 23.4196 31.0786 28.5721 33.6372L28.8315 33.7624L29.0909 33.6372C33.5994 31.3828 33.9035 28.2785 33.9035 27.3839V27.2586C33.814 25.6394 32.4991 24.3601 30.88 24.3601C30.1107 24.3601 29.3861 24.6553 28.8315 25.1653V26.7487C28.8315 26.7487 29.8244 25.5589 30.88 25.5589C31.855 25.5589 32.669 26.3282 32.7138 27.3034V27.3928C32.7585 28.1175 32.4991 30.5418 28.7957 32.501C25.3518 30.6671 24.9224 28.4574 24.9224 27.1781V27.1244H24.9045Z" fill="white"/>
<path d="M29.6726 28.3055H29.5384H29.279V28.1444V27.6792V27.2498H28.3577V27.6792V27.9387V28.2965H27.7673H27.3379V29.2181H27.4005H27.7583H28.3487V30.1485V30.2469H29.2701V30.1485V29.2628H29.5653H30.2898V29.066V28.3055H29.6726Z" fill="white"/>
<path d="M7.12891 44.6141L8.81063 43.3347L9.1416 43.7731L7.45988 45.0525L7.12891 44.6141Z" fill="#231F20"/>
<path d="M7.52281 41.465L5.67113 42.485L5.40277 42.0018L6.04684 40.4898L4.91973 41.1161L4.65137 40.633L6.50305 39.613L6.77141 40.0962L6.12734 41.6082L7.25446 40.9819L7.52281 41.465Z" fill="#231F20"/>
<path d="M3.78293 37.3588L5.33047 36.7952L5.51832 37.3141L3.97078 37.8777L4.12285 38.2982L3.68453 38.4593L3.18359 37.0994L3.62191 36.9383L3.78293 37.3588Z" fill="#231F20"/>
<path d="M2.74527 33.5567L2.8884 34.1919L3.22832 34.1203L3.09414 33.5209L3.55035 33.4225L3.68453 34.0219L4.04234 33.9414L3.89922 33.3062L4.35543 33.2078L4.61485 34.3798L2.54848 34.8361L2.28906 33.664L2.74527 33.5567Z" fill="#231F20"/>
<path d="M1.86959 30.3541C1.86065 30.193 1.86959 29.9962 2.02166 29.8262C2.13795 29.7009 2.31686 29.6204 2.48682 29.6115C2.66573 29.6025 2.82674 29.6473 2.93409 29.7457C3.0146 29.8262 3.07721 29.9336 3.10405 30.023L3.91807 29.2983L3.9628 29.9783L3.1935 30.5598L3.99858 30.5062L4.03436 31.0519L1.92327 31.204L1.86959 30.3541ZM2.83569 30.5956L2.82674 30.4883C2.8178 30.4077 2.79096 30.2914 2.7194 30.2288C2.67467 30.193 2.60311 30.1662 2.54049 30.1751C2.47788 30.1751 2.40631 30.2109 2.37053 30.2646C2.32581 30.3183 2.29897 30.4167 2.30792 30.533L2.31686 30.6404L2.83569 30.5956Z" fill="#231F20"/>
<path d="M3.92637 27.2678L1.82422 27.071L1.87789 26.5253L3.26442 25.6395L1.97629 25.5143L2.02996 24.9685L4.13211 25.1653L4.07844 25.7111L2.69191 26.5968L3.98004 26.7221L3.92637 27.2678Z" fill="#231F20"/>
<path d="M4.53559 21.6225L4.34774 22.3651L4.65188 22.5888L4.50875 23.1524L2.66602 21.8373L2.81809 21.2557L5.06336 21.0142L4.92024 21.5778L4.53559 21.6225ZM4.09727 21.6583L3.3727 21.721L3.98098 22.1146L4.09727 21.6583Z" fill="#231F20"/>
<path d="M4.56125 17.7847L6.07301 18.4379L5.85832 18.9389L4.34656 18.2858L4.16766 18.6973L3.73828 18.5094L4.31078 17.1853L4.74016 17.3732L4.56125 17.7847Z" fill="#231F20"/>
<path d="M5.67965 14.6357L7.49555 15.7094L7.21824 16.1835L5.40234 15.1099L5.67965 14.6357Z" fill="#231F20"/>
<path d="M9.73239 12.1668C9.75923 12.4621 9.65189 12.7662 9.45509 13.0078C9.25829 13.2494 8.98099 13.4194 8.68579 13.4552C8.3727 13.4909 8.07751 13.3925 7.86282 13.2225C7.63919 13.0436 7.47817 12.7752 7.45134 12.4621C7.4245 12.1668 7.53184 11.8626 7.72864 11.6211C7.92544 11.3795 8.20274 11.2095 8.49794 11.1737C8.80208 11.129 9.10622 11.2363 9.32091 11.4153C9.54454 11.5853 9.70556 11.8537 9.73239 12.1668ZM8.00595 12.3994C8.02384 12.5605 8.10435 12.6947 8.22063 12.7931C8.36376 12.9094 8.52478 12.9273 8.63212 12.9094C8.77524 12.8915 8.91837 12.8289 9.03466 12.6857C9.15095 12.5426 9.18673 12.3905 9.16884 12.2563C9.15095 12.1221 9.08833 11.97 8.9631 11.8716C8.83786 11.7642 8.67685 11.7374 8.54267 11.7463C8.38165 11.7642 8.23852 11.8537 8.14907 11.97C8.05067 12.0773 7.997 12.2384 8.00595 12.3994Z" fill="#231F20"/>
<path d="M11.6551 10.5299L10.2686 8.93738L10.68 8.57951L12.2902 8.89265L11.4404 7.91744L11.8519 7.55957L13.2384 9.1521L12.8269 9.50998L11.2168 9.19684L12.0666 10.172L11.6551 10.5299Z" fill="#231F20"/>
<path d="M15.9849 6.8623L15.3319 7.25596L15.3945 7.63172L14.9025 7.93591L14.5 5.70816L15.0099 5.39502L16.79 6.79072L16.2891 7.09491L15.9849 6.8623ZM15.645 6.576L15.0904 6.11076L15.2514 6.81756L15.645 6.576Z" fill="#231F20"/>
<path d="M18.3282 3.73071L18.9634 5.25167L19.5716 4.99221L19.7505 5.42166L18.6413 5.88689L17.8184 3.93649L18.3282 3.73071Z" fill="#231F20"/>
<path d="M24.1514 4.14237L24.2319 2.00409L24.7686 1.93251L25.3411 2.99718L25.6452 1.8162L26.1909 1.74463L26.7813 3.79345L26.2356 3.86502L25.9225 2.6751L25.5737 3.94554L25.359 3.97238L24.7149 2.82719L24.697 4.05291L24.1514 4.14237Z" fill="#231F20"/>
<path d="M30.1898 2.13823L29.5368 2.12033L29.5279 2.46926L30.1451 2.48715L30.1272 2.95239L29.51 2.93449L29.5011 3.30131L30.1541 3.31921L30.1362 3.78444L28.9375 3.74865L29.0091 1.63721L30.2077 1.67299L30.1898 2.13823Z" fill="#231F20"/>
<path d="M32.3008 3.99924L32.6854 1.92358L33.3921 2.05779C33.5979 2.09357 33.9467 2.19199 34.1614 2.49618C34.3582 2.77353 34.3493 3.07772 34.3135 3.31034C34.2598 3.58769 34.1525 3.81136 33.9109 3.98135C33.7141 4.11555 33.41 4.21397 33.0522 4.15134L32.3008 3.99924ZM32.918 3.64137L33.0254 3.65927C33.1595 3.68611 33.3384 3.704 33.5084 3.59664C33.5889 3.54296 33.7052 3.42665 33.7499 3.20298C33.7857 3.00615 33.7589 2.83616 33.6694 2.71985C33.5621 2.5767 33.4011 2.53197 33.2669 2.51407L33.1327 2.48723L32.918 3.64137Z" fill="#231F20"/>
<path d="M37.4011 3.08675L36.7388 5.091L36.2197 4.921L36.882 2.91675L37.4011 3.08675Z" fill="#231F20"/>
<path d="M40.2442 6.52236C40.0116 6.49552 39.8953 6.46868 39.77 6.415C39.4391 6.25396 39.2512 6.00345 39.1707 5.77978C39.0723 5.50242 39.0991 5.19823 39.2154 4.94772C39.3496 4.67932 39.5822 4.47354 39.8416 4.38407C40.0921 4.2946 40.4052 4.2946 40.7004 4.43775C40.7898 4.48249 40.9329 4.56301 41.1029 4.75089L40.8166 5.34138C40.754 5.06403 40.5662 4.96562 40.4857 4.92983C40.3425 4.85825 40.2173 4.84931 40.0831 4.89404C39.9132 4.94772 39.7969 5.07298 39.7253 5.20718C39.6627 5.34138 39.6448 5.51137 39.6985 5.65452C39.7432 5.77083 39.8506 5.88714 39.9847 5.95871C40.0563 5.9945 40.2442 6.07502 40.5125 5.96766L40.2442 6.52236Z" fill="#231F20"/>
<path d="M43.3579 8.09688L42.7317 7.65848L42.4096 7.87321L41.9355 7.54218L43.8051 6.27173L44.2971 6.61171L43.7425 8.79473L43.2595 8.4637L43.3579 8.09688ZM43.4741 7.66743L43.6709 6.96958L43.0895 7.39903L43.4741 7.66743Z" fill="#231F20"/>
<path d="M47.1679 8.9639L46.0408 10.1628L46.5239 10.6101L46.2018 10.9501L45.3252 10.127L46.7743 8.58813L47.1679 8.9639Z" fill="#231F20"/>
<path d="M51.229 14.6716L50.8712 14.1258L50.576 14.3137L50.9159 14.8326L50.5223 15.0831L50.1824 14.5642L49.8782 14.761L50.2361 15.3068L49.8425 15.5573L49.1895 14.5553L50.9606 13.4011L51.6136 14.4032L51.229 14.6716Z" fill="#231F20"/>
<path d="M51.5963 18.8228C51.4353 18.6617 51.3548 18.5633 51.3011 18.4381C51.149 18.107 51.1669 17.7939 51.2474 17.5613C51.3458 17.2839 51.5605 17.0603 51.811 16.9439C52.0793 16.8187 52.3924 16.8187 52.6518 16.9082C52.9023 16.9976 53.1438 17.1945 53.287 17.4897C53.3317 17.5792 53.3854 17.7402 53.3943 17.9818L52.8039 18.2591C52.9291 18.0086 52.8486 17.8118 52.8129 17.7313C52.7502 17.5881 52.6518 17.4986 52.5266 17.445C52.3656 17.3823 52.1867 17.4002 52.0525 17.4629C51.9183 17.5255 51.802 17.6507 51.7484 17.7939C51.7126 17.9102 51.7126 18.0712 51.7841 18.2144C51.8199 18.286 51.9094 18.4649 52.1867 18.5544L51.5963 18.8228Z" fill="#231F20"/>
<path d="M53.0813 22.6339C52.8219 22.4818 52.643 22.2223 52.5536 21.9181C52.4731 21.6139 52.4909 21.2918 52.6341 21.0324C52.7772 20.755 53.0366 20.5761 53.305 20.4956C53.5733 20.424 53.8954 20.4419 54.1548 20.6029C54.4142 20.755 54.5931 21.0145 54.6825 21.3187C54.7631 21.6229 54.7452 21.945 54.602 22.2044C54.4589 22.4818 54.1995 22.6607 53.9311 22.7412C53.6628 22.8128 53.3497 22.7949 53.0813 22.6339ZM53.8864 21.095C53.7522 21.0145 53.5823 21.0055 53.4392 21.0413C53.2602 21.095 53.1618 21.2113 53.1082 21.3097C53.0366 21.435 53.0098 21.5871 53.0634 21.766C53.1171 21.945 53.2155 22.0613 53.3318 22.1328C53.457 22.2044 53.6091 22.2313 53.7701 22.1865C53.9311 22.1418 54.0474 22.0344 54.1101 21.9092C54.1816 21.766 54.1995 21.596 54.1548 21.4529C54.1279 21.3187 54.0295 21.1755 53.8864 21.095Z" fill="#231F20"/>
<path d="M53.9305 25.228C53.8321 25.3533 53.7516 25.5412 53.7695 25.7291C53.7784 25.8364 53.8231 25.899 53.8679 25.9348C53.9036 25.9617 53.9484 25.9796 54.002 25.9706C54.0468 25.9617 54.0915 25.9438 54.1183 25.899C54.1631 25.8364 54.172 25.7559 54.1988 25.6127L54.2257 25.4696C54.2436 25.3801 54.2793 25.2459 54.3599 25.1475C54.4672 25.0312 54.6103 24.9954 54.7177 24.9865C54.9771 24.9596 55.147 25.0401 55.2454 25.1207C55.3617 25.2191 55.478 25.3801 55.5049 25.6396C55.5317 25.8454 55.487 26.0959 55.4065 26.3106L54.9592 26.1406C55.0665 25.9617 55.0665 25.8364 55.0576 25.7648C55.0486 25.7112 55.0307 25.6396 54.9771 25.5948C54.9413 25.568 54.9055 25.5501 54.8608 25.5501C54.825 25.5501 54.7982 25.568 54.7713 25.5859C54.7534 25.6038 54.7177 25.6485 54.6998 25.7827L54.664 25.9527C54.6372 26.0869 54.6014 26.2301 54.494 26.3553C54.3956 26.4716 54.2793 26.5164 54.1362 26.5343C53.9484 26.5522 53.7516 26.5253 53.5816 26.3911C53.3848 26.2301 53.3222 26.0153 53.2954 25.7917C53.2775 25.6575 53.2775 25.5322 53.3222 25.3712C53.3311 25.3354 53.3669 25.2012 53.4564 25.0312L53.9305 25.228Z" fill="#231F20"/>
<path d="M54.5121 29.236L55.6392 28.5203L55.6124 29.1734L55.022 29.5491L55.5856 29.9518L55.5587 30.6138L54.4942 29.7818L53.4834 29.746L53.5013 29.1913L54.5121 29.236Z" fill="#231F20"/>
<path d="M53.8147 32.6263C53.6805 32.7247 53.5463 32.8768 53.5105 33.0647C53.4927 33.172 53.5105 33.2436 53.5463 33.2883C53.5732 33.3241 53.6179 33.3599 53.6716 33.3689C53.7163 33.3778 53.761 33.3689 53.8057 33.3331C53.8594 33.2883 53.8952 33.2078 53.9668 33.0826L54.0383 32.9484C54.083 32.8678 54.1546 32.7515 54.2619 32.68C54.3961 32.5994 54.5482 32.6084 54.6555 32.6263C54.915 32.671 55.0491 32.8052 55.1207 32.9126C55.2102 33.0378 55.2638 33.2257 55.2191 33.4852C55.1833 33.691 55.067 33.9146 54.9328 34.0936L54.5482 33.7983C54.7092 33.6641 54.745 33.5389 54.7539 33.4673C54.7629 33.4136 54.7629 33.342 54.7271 33.2794C54.7003 33.2436 54.6734 33.2168 54.6287 33.2078C54.5929 33.1989 54.5661 33.1989 54.5303 33.2168C54.5124 33.2257 54.4677 33.2615 54.4051 33.3778L54.3246 33.5299C54.2619 33.6552 54.1904 33.7804 54.0473 33.8699C53.9131 33.9594 53.7968 33.9594 53.6537 33.9325C53.4658 33.8967 53.2869 33.8162 53.1706 33.6373C53.0275 33.4226 53.0275 33.2078 53.0722 32.9842C53.0991 32.85 53.1348 32.7336 53.2154 32.5905C53.2332 32.5547 53.3048 32.4384 53.439 32.3042L53.8147 32.6263Z" fill="#231F20"/>
<path d="M53.6982 37.189L52.1328 36.67L52.3028 36.1511L53.8682 36.67L54.0113 36.2406L54.4497 36.3837L53.9934 37.7526L53.5551 37.6095L53.6982 37.189Z" fill="#231F20"/>
<path d="M52.1509 40.812L52.4372 40.2304L52.1241 40.0783L51.8557 40.633L51.4353 40.4273L51.7037 39.8726L51.3727 39.7115L51.0864 40.2931L50.666 40.0873L51.1938 39.0137L53.0902 39.9441L52.5624 41.0178L52.1509 40.812Z" fill="#231F20"/>
<path d="M49.6546 41.8855L51.1664 43.4065L50.8533 43.8449L49.6904 43.5407L50.3434 44.5606L50.0214 45.0079L48.125 44.0417L48.447 43.5943L49.5294 44.1759L48.8406 43.0575L48.9659 42.8786L50.2361 43.1917L49.3505 42.3418L49.6546 41.8855Z" fill="#231F20"/>
<path d="M14.1957 50.6079C14.1599 50.4647 14.1957 50.3126 14.2673 50.2053C14.3389 50.0979 14.4642 50.0084 14.6163 49.9726C14.7416 49.9458 14.8759 49.9726 14.9922 50.0442C15.0907 50.1068 15.1712 50.2052 15.207 50.3484C15.2518 50.5363 15.1981 50.6795 15.1354 50.76C15.0638 50.8674 14.9475 50.9568 14.8132 50.9837C14.67 51.0105 14.5268 50.9837 14.4194 50.9121C14.321 50.8584 14.2225 50.7511 14.1957 50.6079Z" fill="#231F20"/>
<path d="M22.8636 52.6566L22.1479 55.3496L21.4502 55.1617L22.1658 52.4688L22.8636 52.6566Z" fill="#231F20"/>
<path d="M24.5186 55.8867L25.2431 53.158L25.9588 53.2206L26.3792 54.7505L27.1127 53.3279L27.8283 53.3906L27.9893 56.2088L27.2737 56.1462L27.22 54.5268L26.3971 56.0657L26.1108 56.0388L25.6188 54.3837L25.2342 55.9583L24.5186 55.8867Z" fill="#231F20"/>
<path d="M31.8271 53.8288L30.9684 53.9004L31.0041 54.3657L31.8182 54.2941L31.8718 54.9025L31.0578 54.974L31.1025 55.4572L31.9613 55.3856L32.015 55.994L30.4406 56.1282L30.208 53.3547L31.7824 53.2205L31.8271 53.8288Z" fill="#231F20"/>
<path d="M34.3681 54.7594C34.5559 54.8667 34.8154 54.9472 35.0569 54.8846C35.2 54.8488 35.2716 54.7862 35.3073 54.7236C35.3342 54.6699 35.3521 54.6073 35.3342 54.5357C35.3252 54.482 35.2895 54.4283 35.2179 54.3925C35.1374 54.3478 35.0211 54.3478 34.8332 54.3389L34.6364 54.3299C34.5112 54.321 34.3323 54.3031 34.1892 54.2047C34.0103 54.0883 33.9566 53.9005 33.9208 53.7663C33.8403 53.4352 33.9208 53.2026 34.0103 53.0505C34.1176 52.8805 34.3144 52.7016 34.6454 52.63C34.9138 52.5674 35.2447 52.5763 35.531 52.6479L35.3879 53.2652C35.1374 53.1489 34.9764 53.1758 34.878 53.1937C34.8064 53.2116 34.717 53.2473 34.6633 53.3279C34.6364 53.3815 34.6186 53.4263 34.6275 53.4889C34.6364 53.5336 34.6543 53.5694 34.6901 53.6052C34.717 53.6231 34.7796 53.6589 34.9585 53.6678L35.1911 53.6768C35.37 53.6857 35.5668 53.7036 35.7457 53.8289C35.9156 53.9452 35.9961 54.0794 36.0409 54.2673C36.1035 54.5178 36.0945 54.7683 35.9514 55.0099C35.7725 55.2962 35.5041 55.4125 35.2179 55.484C35.0479 55.5288 34.878 55.5467 34.6633 55.5198C34.6186 55.5109 34.4307 55.493 34.1981 55.4035L34.3681 54.7594Z" fill="#231F20"/>
<path d="M42.83 51.0017C42.6779 50.9748 42.5615 50.8854 42.4899 50.778C42.4183 50.6706 42.3825 50.5185 42.4183 50.3664C42.4452 50.2412 42.5257 50.1248 42.6421 50.0533C42.7405 49.9906 42.8658 49.9548 43.009 49.9817C43.197 50.0175 43.3044 50.1248 43.367 50.2054C43.4386 50.3127 43.4655 50.4559 43.4386 50.5901C43.4118 50.7333 43.3223 50.8496 43.2149 50.9212C43.1075 50.9927 42.9822 51.0285 42.83 51.0017Z" fill="#231F20"/>
<path d="M66.0615 28.5478V22.4998H67.7254V28.5478H66.0615Z" fill="black"/>
<path d="M69.0576 28.5476V22.4995H70.6499L72.9309 25.613C72.9846 25.7025 73.0651 25.8277 73.1456 25.9977C73.2619 26.2214 73.3693 26.4451 73.4766 26.6777C73.4319 26.3645 73.414 26.1409 73.405 26.0156C73.3872 25.8188 73.3782 25.6398 73.3782 25.4877V22.4995H74.9615V28.5476H73.3782L71.0971 25.4251C71.0614 25.3804 70.9898 25.2551 70.8825 25.0404C70.7841 24.8615 70.6767 24.6378 70.5515 24.3694C70.5783 24.5841 70.6052 24.8078 70.632 25.0404C70.6409 25.2999 70.6499 25.4788 70.6499 25.5683V28.5565H69.0576V28.5476Z" fill="black"/>
<path d="M77.1448 28.5476V23.931H75.7852V22.4995H80.1505V23.931H78.7908V28.5476H77.1448Z" fill="black"/>
<path d="M80.9551 28.5476V22.4995H84.6584V23.8326H82.5652V24.8704H84.5421V26.1767H82.5652V27.1966H84.6674V28.5565H80.9551V28.5476Z" fill="black"/>
<path d="M85.749 28.5476V22.4995H87.4755C87.8064 22.4995 88.0927 22.5085 88.3253 22.5174C88.5579 22.5353 88.7457 22.5532 88.8978 22.589C89.1572 22.6516 89.3808 22.75 89.5866 22.9021C89.8102 23.0632 89.9712 23.2779 90.0875 23.5373C90.2038 23.7879 90.2664 24.0652 90.2664 24.3783C90.2664 24.8436 90.1501 25.2283 89.9175 25.5235C89.6939 25.8188 89.354 26.0156 88.9157 26.1051L90.5616 28.5476H88.701L87.3145 26.1767V28.5476H85.749ZM87.2966 25.3535H87.6007C87.9585 25.3535 88.2179 25.2909 88.3789 25.1746C88.54 25.0404 88.6205 24.8525 88.6205 24.602C88.6205 24.2978 88.5489 24.0831 88.3968 23.9578C88.2448 23.8326 87.9854 23.761 87.6275 23.761H87.2966V25.3535Z" fill="black"/>
<path d="M91.1797 28.5476V22.4995H92.772L95.053 25.613C95.1067 25.7025 95.1872 25.8277 95.2677 25.9977C95.384 26.2214 95.4913 26.4451 95.5987 26.6777C95.5539 26.3645 95.5361 26.1409 95.5271 26.0156C95.5092 25.8188 95.5003 25.6398 95.5003 25.4877V22.4995H97.0836V28.5476H95.5003L93.2192 25.4251C93.1834 25.3804 93.1119 25.2551 93.0045 25.0404C92.9061 24.8615 92.7988 24.6378 92.6736 24.3694C92.7004 24.5841 92.7272 24.8078 92.7541 25.0404C92.763 25.2999 92.772 25.4788 92.772 25.5683V28.5565H91.1797V28.5476Z" fill="black"/>
<path d="M97.6738 28.5476L99.7581 22.4995H101.824L103.918 28.5476H102.281L101.977 27.465H99.6329L99.3198 28.5476H97.6738ZM99.9907 26.284H101.628L101.01 24.2889C100.993 24.2531 100.975 24.1547 100.93 23.9936C100.885 23.8057 100.84 23.6358 100.805 23.4747C100.769 23.6179 100.733 23.761 100.706 23.9042C100.662 24.0384 100.626 24.1726 100.599 24.2889L99.9907 26.284Z" fill="black"/>
<path d="M105.375 28.5476V23.931H104.016V22.4995H108.372V23.931H107.012V28.5476H105.375Z" fill="black"/>
<path d="M109.222 28.5476V22.4995H110.886V28.5476H109.222Z" fill="black"/>
<path d="M118.427 25.5323C118.427 25.9707 118.347 26.3823 118.195 26.758C118.034 27.1338 117.801 27.4648 117.497 27.778C117.193 28.0732 116.835 28.3058 116.441 28.4669C116.03 28.6279 115.618 28.7084 115.207 28.7084C114.795 28.7084 114.384 28.6279 113.972 28.4669C113.57 28.3058 113.221 28.0732 112.926 27.778C112.631 27.4917 112.398 27.1517 112.228 26.7491C112.067 26.3554 111.978 25.9528 111.978 25.5323C111.978 25.1118 112.058 24.7003 112.228 24.3156C112.398 23.9129 112.631 23.573 112.926 23.2867C113.23 22.9825 113.579 22.7499 113.972 22.5888C114.357 22.4278 114.768 22.3562 115.207 22.3562C115.645 22.3562 116.057 22.4367 116.45 22.5978C116.844 22.7588 117.193 22.9914 117.497 23.2867C117.801 23.5909 118.042 23.9308 118.203 24.3156C118.356 24.7003 118.427 25.1029 118.427 25.5323ZM115.198 27.3127C115.654 27.3127 116.03 27.1427 116.334 26.8028C116.486 26.6328 116.593 26.4449 116.665 26.2391C116.736 26.0333 116.772 25.7918 116.772 25.5323C116.772 25.0313 116.62 24.6019 116.325 24.2619C116.021 23.9219 115.645 23.7519 115.189 23.7519C114.733 23.7519 114.348 23.9219 114.053 24.2619C113.758 24.6019 113.606 25.0224 113.606 25.5323C113.606 26.0602 113.749 26.4807 114.044 26.8117C114.357 27.1427 114.733 27.3127 115.198 27.3127Z" fill="black"/>
<path d="M119.464 28.5476V22.4995H121.056L123.337 25.613C123.391 25.7025 123.471 25.8277 123.552 25.9977C123.668 26.2214 123.776 26.4451 123.883 26.6777C123.838 26.3645 123.82 26.1409 123.811 26.0156C123.793 25.8188 123.784 25.6398 123.784 25.4877V22.4995H125.368V28.5476H123.784L121.503 25.4251C121.468 25.3804 121.396 25.2551 121.289 25.0404C121.19 24.8615 121.083 24.6378 120.958 24.3694C120.985 24.5841 121.011 24.8078 121.038 25.0404C121.047 25.2999 121.056 25.4788 121.056 25.5683V28.5565H119.464V28.5476Z" fill="black"/>
<path d="M125.96 28.5476L128.044 22.4995H130.111L132.204 28.5476H130.567L130.263 27.465H127.919L127.606 28.5476H125.96ZM128.277 26.284H129.914L129.297 24.2889C129.279 24.2531 129.261 24.1547 129.216 23.9936C129.171 23.8057 129.127 23.6358 129.091 23.4747C129.055 23.6179 129.019 23.761 128.992 23.9042C128.948 24.0384 128.912 24.1726 128.885 24.2889L128.277 26.284Z" fill="black"/>
<path d="M132.784 28.5476V22.4995H134.43V27.134H136.479V28.5476H132.784Z" fill="black"/>
<path d="M66.4101 32.9475H66.9915L68.0918 35.5868L69.2457 32.9475H69.8272L70.5249 37.0988H69.702L69.3263 34.54L68.217 37.0988H67.9397L66.8752 34.54L66.4548 37.0988H65.6318L66.4101 32.9475Z" fill="black"/>
<path d="M74.3097 33.6464H72.8158V34.5769H74.2471V35.2747H72.8158V36.411H74.3097V37.1088H72.0107V32.9575H74.3097V33.6464Z" fill="black"/>
<path d="M76.9214 32.9484C77.5029 32.9484 78.0038 33.011 78.46 33.351C78.9609 33.7268 79.2561 34.3352 79.2561 35.0241C79.2561 35.713 78.9699 36.3124 78.4242 36.6971C77.9412 37.0371 77.485 37.0908 76.9035 37.0908H75.8301V32.9395H76.9214V32.9484ZM76.6441 36.4019H76.8946C77.1003 36.4019 77.5476 36.3929 77.9054 36.1245C78.2364 35.8919 78.4242 35.4625 78.4242 35.0241C78.4242 34.5857 78.2453 34.1652 77.9143 33.9147C77.5744 33.6641 77.1719 33.6373 76.8946 33.6373H76.6441V36.4019Z" fill="black"/>
<path d="M81.5541 32.9485V37.0995H80.749V32.9485H81.5541Z" fill="black"/>
<path d="M86.2602 36.9476C86.0097 37.0818 85.6788 37.1891 85.2315 37.1891C84.5069 37.1891 84.0596 36.9386 83.7108 36.6076C83.2277 36.1513 83.0488 35.6324 83.0488 35.024C83.0488 34.2725 83.3619 33.7267 83.7108 33.4046C84.1312 33.011 84.6411 32.8589 85.2315 32.8589C85.5267 32.8589 85.8755 32.9126 86.2513 33.1094V34.0578C85.8755 33.6194 85.4014 33.5925 85.2494 33.5925C84.4175 33.5925 83.8718 34.2725 83.8718 35.0419C83.8718 35.9634 84.5785 36.4555 85.2762 36.4555C85.6609 36.4555 86.0008 36.2855 86.2423 35.9992V36.9476H86.2602Z" fill="black"/>
<path d="M90.2043 36.232H88.5315L88.1647 37.0998H87.2881L89.0682 32.9485H89.7033L91.4387 37.0998H90.571L90.2043 36.232ZM89.9717 35.5699L89.3813 34.0758L88.7909 35.5699H89.9717Z" fill="black"/>
<path d="M93.4878 32.9485V36.402H94.767V37.0998H92.6738V32.9485H93.4878Z" fill="black"/>
<path d="M100.564 33.6464H99.0697V34.5769H100.501V35.2747H99.0697V36.411H100.564V37.1088H98.2646V32.9575H100.564V33.6464Z" fill="black"/>
<path d="M105.108 36.9476C104.857 37.0818 104.526 37.1891 104.079 37.1891C103.355 37.1891 102.907 36.9386 102.558 36.6076C102.075 36.1513 101.896 35.6324 101.896 35.024C101.896 34.2725 102.21 33.7267 102.558 33.4046C102.979 33.011 103.489 32.8589 104.079 32.8589C104.374 32.8589 104.723 32.9126 105.099 33.1094V34.0578C104.723 33.6194 104.249 33.5925 104.097 33.5925C103.265 33.5925 102.719 34.2725 102.719 35.0419C102.719 35.9634 103.426 36.4555 104.124 36.4555C104.509 36.4555 104.848 36.2855 105.09 35.9992V36.9476H105.108Z" fill="black"/>
<path d="M110.824 35.033C110.824 36.2945 109.921 37.1981 108.615 37.1981C107.309 37.1981 106.405 36.2945 106.405 35.033C106.405 33.7715 107.309 32.8589 108.615 32.8589C109.921 32.8589 110.824 33.7715 110.824 35.033ZM109.992 35.033C109.992 34.192 109.42 33.5925 108.615 33.5925C107.81 33.5925 107.237 34.192 107.237 35.033C107.237 35.874 107.81 36.4645 108.615 36.4645C109.42 36.4645 109.992 35.865 109.992 35.033Z" fill="black"/>
<path d="M114.357 33.8969C114.116 33.5748 113.83 33.539 113.678 33.539C113.239 33.539 113.105 33.8164 113.105 34.0221C113.105 34.1205 113.132 34.219 113.239 34.2995C113.338 34.3889 113.472 34.4426 113.74 34.5321C114.062 34.6484 114.366 34.7558 114.581 34.9526C114.769 35.1226 114.939 35.3999 114.939 35.8204C114.939 36.6257 114.357 37.1804 113.499 37.1804C112.738 37.1804 112.282 36.7151 112.067 36.393L112.595 35.892C112.792 36.2946 113.177 36.4467 113.463 36.4467C113.83 36.4467 114.107 36.223 114.107 35.8741C114.107 35.722 114.053 35.6057 113.946 35.4984C113.794 35.3552 113.543 35.2747 113.302 35.1942C113.087 35.1226 112.819 35.0242 112.613 34.8363C112.479 34.72 112.282 34.4874 112.282 34.0669C112.282 33.4585 112.694 32.8501 113.615 32.8501C113.874 32.8501 114.366 32.9038 114.787 33.3332L114.357 33.8969Z" fill="black"/>
<path d="M117.193 35.2031L115.771 32.9485H116.728L117.613 34.3889L118.499 32.9485H119.456L117.998 35.2031V37.0998H117.193V35.2031Z" fill="black"/>
<path d="M122.516 33.8969C122.274 33.5748 121.988 33.539 121.836 33.539C121.397 33.539 121.263 33.8164 121.263 34.0221C121.263 34.1205 121.29 34.219 121.397 34.2995C121.496 34.3889 121.63 34.4426 121.898 34.5321C122.22 34.6484 122.525 34.7558 122.739 34.9526C122.927 35.1226 123.097 35.3999 123.097 35.8204C123.097 36.6257 122.516 37.1804 121.657 37.1804C120.896 37.1804 120.44 36.7151 120.226 36.393L120.753 35.892C120.95 36.2946 121.335 36.4467 121.621 36.4467C121.988 36.4467 122.265 36.223 122.265 35.8741C122.265 35.722 122.211 35.6057 122.104 35.4984C121.952 35.3552 121.702 35.2747 121.46 35.1942C121.245 35.1226 120.977 35.0242 120.771 34.8363C120.637 34.72 120.44 34.4874 120.44 34.0669C120.44 33.4585 120.852 32.8501 121.773 32.8501C122.033 32.8501 122.525 32.9038 122.945 33.3332L122.516 33.8969Z" fill="black"/>
<path d="M125.789 33.6463V37.0998H124.984V33.6463H124.054V32.9485H126.728V33.6463H125.789Z" fill="black"/>
<path d="M130.279 33.6464H128.786V34.5769H130.217V35.2747H128.786V36.411H130.279V37.1088H127.98V32.9575H130.279V33.6464Z" fill="black"/>
<path d="M132.364 32.9485H132.946L134.046 35.5878L135.2 32.9485H135.781L136.479 37.0998H135.656L135.28 34.541L134.171 37.0998H133.894L132.829 34.541L132.409 37.0998H131.586L132.364 32.9485Z" fill="black"/>
</svg>
